<svg xmlns="http://www.w3.org/2000/svg" version="1.1" xmlns:xlink="http://www.w3.org/1999/xlink" xmlns:svgjs="http://svgjs.dev/svgjs" width="1000" height="244" viewBox="0 0 1000 244"><g transform="matrix(1,0,0,1,-0.6060522741821046,-0.5241613860661403)"><svg viewBox="0 0 396 97" data-background-color="#ffffff" preserveAspectRatio="xMidYMid meet" height="244" width="1000" xmlns="http://www.w3.org/2000/svg" xmlns:xlink="http://www.w3.org/1999/xlink"><g id="tight-bounds" transform="matrix(1,0,0,1,0.23999741911774208,0.2083756329853088)"><svg viewBox="0 0 395.52 96.58324873402938" height="96.58324873402938" width="395.52"><g><svg viewBox="0 0 545.5891458829099 133.22909633746897" height="96.58324873402938" width="395.52"><g><rect width="5.524324427358015" height="133.22909633746897" x="130.0832391849812" y="0" fill="#374151" opacity="1" stroke-width="0" stroke="transparent" fill-opacity="1" class="rect-o-0" data-fill-palette-color="primary" rx="1%" id="o-0" data-palette-color="#374151"></rect></g><g transform="matrix(1,0,0,1,150.06914588290994,0.33141566253101473)"><svg viewBox="0 0 395.52 132.56626501240694" height="132.56626501240694" width="395.52"><g id="textblocktransform"><svg viewBox="0 0 395.52 132.56626501240694" height="132.56626501240694" width="395.52" id="textblock"><g><svg viewBox="0 0 395.52 132.56626501240694" height="132.56626501240694" width="395.52"><g transform="matrix(1,0,0,1,0,0)"><svg width="395.52" viewBox="3.09999942779541 -36.05999755859375 236.22999572753906 75.62999725341797" height="132.56626501240694" data-palette-color="#374151"><svg></svg><svg></svg><g class="wordmark-text-0" data-fill-palette-color="primary" id="text-0"><path xmlns="http://www.w3.org/2000/svg" d="M14.99-22.19l-3.37-13.36h-8.52v35.55h6.3v-10.52l-0.29-15.97 4.17 14.77h3.39l4.67-15.43-0.3 16.63v10.52h6.3v-35.55h-8.52zM40.48-15.58h14.6v-5.42h-14.6v-8.96h16.99v-5.59h-23.88v35.55h23.95v-5.54h-17.06zM63.06-35.55v35.55h9.55c1.58 0 3.063-0.197 4.45-0.59 1.393-0.387 2.667-0.947 3.82-1.68v0c0.993-0.62 1.907-1.39 2.74-2.31 0.827-0.92 1.55-1.923 2.17-3.01v0c0.653-1.22 1.157-2.563 1.51-4.03 0.36-1.467 0.54-3.02 0.54-4.66v0-2.93c0-1.713-0.19-3.327-0.57-4.84-0.387-1.513-0.93-2.897-1.63-4.15v0c-0.6-1.027-1.303-1.973-2.11-2.84-0.807-0.873-1.72-1.61-2.74-2.21v0c-1.173-0.733-2.477-1.3-3.91-1.7-1.433-0.4-2.97-0.6-4.61-0.6v0zM69.97-5.52v-24.46h2.3c0.827 0 1.593 0.093 2.3 0.28 0.707 0.187 1.353 0.45 1.94 0.79v0c0.767 0.46 1.44 1.047 2.02 1.76 0.573 0.72 1.04 1.533 1.4 2.44v0c0.293 0.767 0.517 1.61 0.67 2.53 0.153 0.92 0.23 1.893 0.23 2.92v0 2.98c0 1.087-0.077 2.1-0.23 3.04-0.153 0.933-0.377 1.783-0.67 2.55v0c-0.36 0.873-0.787 1.64-1.28 2.3-0.493 0.66-1.05 1.203-1.67 1.63v0c-0.607 0.407-1.273 0.717-2 0.93-0.733 0.207-1.523 0.31-2.37 0.31v0zM115.28-35.55h-20.55v5.55h6.76v24.48h-6.76v5.52h20.55v-5.52h-6.93v-24.48h6.93zM147.9-11.13v0h-6.86c-0.067 1.073-0.247 1.993-0.54 2.76-0.293 0.76-0.69 1.387-1.19 1.88v0c-0.507 0.487-1.117 0.843-1.83 1.07-0.72 0.227-1.527 0.34-2.42 0.34v0c-0.667 0-1.273-0.077-1.82-0.23-0.547-0.153-1.04-0.393-1.48-0.72v0c-0.407-0.293-0.767-0.66-1.08-1.1-0.32-0.44-0.593-0.943-0.82-1.51v0c-0.327-0.833-0.567-1.807-0.72-2.92-0.153-1.113-0.23-2.38-0.23-3.8v0-4.83c0-1.04 0.047-2.013 0.14-2.92 0.1-0.9 0.257-1.727 0.47-2.48v0c0.273-0.96 0.643-1.8 1.11-2.52 0.46-0.727 1.023-1.287 1.69-1.68v0c0.393-0.227 0.823-0.397 1.29-0.51 0.46-0.113 0.96-0.17 1.5-0.17v0c1.007 0 1.873 0.133 2.6 0.4 0.72 0.273 1.327 0.67 1.82 1.19v0c0.467 0.533 0.827 1.2 1.08 2 0.253 0.8 0.413 1.727 0.48 2.78v0h6.83c-0.16-1.853-0.55-3.52-1.17-5-0.613-1.48-1.46-2.733-2.54-3.76v0c-1.073-1.027-2.37-1.817-3.89-2.37-1.52-0.553-3.257-0.83-5.21-0.83v0c-1.32 0-2.553 0.167-3.7 0.5-1.147 0.333-2.2 0.81-3.16 1.43v0c-1.073 0.733-2.033 1.627-2.88 2.68-0.847 1.06-1.53 2.267-2.05 3.62v0c-0.46 1.107-0.803 2.307-1.03 3.6-0.227 1.293-0.34 2.657-0.34 4.09v0 4.78c0 1.533 0.127 2.983 0.38 4.35 0.253 1.367 0.613 2.62 1.08 3.76v0c0.493 1.14 1.093 2.18 1.8 3.12 0.707 0.947 1.517 1.753 2.43 2.42v0c0.993 0.72 2.11 1.27 3.35 1.65 1.247 0.38 2.603 0.57 4.07 0.57v0c1.853 0 3.547-0.273 5.08-0.82 1.527-0.54 2.843-1.317 3.95-2.33v0c1.107-1.007 1.99-2.227 2.65-3.66 0.66-1.433 1.047-3.043 1.16-4.83zM175.29-35.55h-20.55v5.55h6.76v24.48h-6.76v5.52h20.55v-5.52h-6.93v-24.48h6.93zM199.83 0h6.84v-35.55h-6.89l-0.02 22.83-9.82-22.83h-6.91v35.55h6.91v-22.92zM220.51-15.58h14.6v-5.42h-14.6v-8.96h16.99v-5.59h-23.88v35.55h23.95v-5.54h-17.06z" fill="#374151" fill-rule="nonzero" stroke="none" stroke-width="1" stroke-linecap="butt" stroke-linejoin="miter" stroke-miterlimit="10" stroke-dasharray="" stroke-dashoffset="0" font-family="none" font-weight="none" font-size="none" text-anchor="none" style="mix-blend-mode: normal" data-fill-palette-color="primary" opacity="1"></path><path xmlns="http://www.w3.org/2000/svg" d="M10.06 26.29h5.2l6.69 13.28h7.35v-0.32l-7.64-14.67c0.973-0.44 1.853-0.96 2.64-1.56 0.793-0.607 1.473-1.317 2.04-2.13v0c0.553-0.793 0.98-1.7 1.28-2.72 0.307-1.013 0.46-2.157 0.46-3.43v0c0-1.76-0.307-3.307-0.92-4.64-0.607-1.333-1.473-2.447-2.6-3.34v0c-1.14-0.9-2.507-1.58-4.1-2.04-1.593-0.467-3.377-0.7-5.35-0.7v0h-11.91v35.55h6.86zM15.14 20.72h-5.08v-11.13h5.05c0.947 0 1.787 0.113 2.52 0.34 0.733 0.227 1.35 0.553 1.85 0.98v0c0.573 0.473 1 1.07 1.28 1.79 0.287 0.727 0.43 1.56 0.43 2.5v0c0 0.787-0.11 1.497-0.33 2.13-0.22 0.633-0.54 1.177-0.96 1.63v0c-0.507 0.573-1.163 1.01-1.97 1.31-0.807 0.3-1.737 0.45-2.79 0.45zM40.48 23.99h14.6v-5.42h-14.6v-8.96h16.99v-5.59h-23.88v35.55h23.95v-5.54h-17.06zM75 17.38l-3.37-13.36h-8.52v35.55h6.3v-10.52l-0.29-15.97 4.17 14.77h3.39l4.67-15.43-0.3 16.63v10.52h6.3v-35.55h-8.52zM115.28 4.02h-20.55v5.55h6.76v24.48h-6.76v5.52h20.55v-5.52h-6.93v-24.48h6.93zM139.82 39.57h6.84v-35.55h-6.89l-0.02 22.83-9.82-22.83h-6.91v35.55h6.91v-22.92zM153.08 4.02v35.55h9.54c1.58 0 3.067-0.197 4.46-0.59 1.393-0.387 2.667-0.947 3.82-1.68v0c0.993-0.62 1.903-1.39 2.73-2.31 0.833-0.92 1.56-1.923 2.18-3.01v0c0.647-1.22 1.15-2.563 1.51-4.03 0.36-1.467 0.54-3.02 0.54-4.66v0-2.93c0-1.713-0.193-3.327-0.58-4.84-0.38-1.513-0.92-2.897-1.62-4.15v0c-0.6-1.027-1.303-1.973-2.11-2.84-0.807-0.873-1.723-1.61-2.75-2.21v0c-1.173-0.733-2.477-1.3-3.91-1.7-1.427-0.4-2.963-0.6-4.61-0.6v0zM159.99 34.05v-24.46h2.29c0.833 0 1.603 0.093 2.31 0.28 0.707 0.187 1.353 0.45 1.94 0.79v0c0.767 0.46 1.437 1.047 2.01 1.76 0.58 0.72 1.05 1.533 1.41 2.44v0c0.293 0.767 0.517 1.61 0.67 2.53 0.153 0.92 0.23 1.893 0.23 2.92v0 2.98c0 1.087-0.077 2.1-0.23 3.04-0.153 0.933-0.377 1.783-0.67 2.55v0c-0.36 0.873-0.79 1.64-1.29 2.3-0.493 0.66-1.05 1.203-1.67 1.63v0c-0.6 0.407-1.267 0.717-2 0.93-0.733 0.207-1.523 0.31-2.37 0.31v0zM190.5 23.99h14.6v-5.42h-14.6v-8.96h17v-5.59h-23.88v35.55h23.95v-5.54h-17.07zM220.09 26.29h5.2l6.69 13.28h7.35v-0.32l-7.64-14.67c0.973-0.44 1.857-0.96 2.65-1.56 0.787-0.607 1.467-1.317 2.04-2.13v0c0.553-0.793 0.98-1.7 1.28-2.72 0.3-1.013 0.45-2.157 0.45-3.43v0c0-1.76-0.307-3.307-0.92-4.64-0.607-1.333-1.473-2.447-2.6-3.34v0c-1.133-0.9-2.5-1.58-4.1-2.04-1.593-0.467-3.373-0.7-5.34-0.7v0h-11.92v35.55h6.86zM225.17 20.72h-5.08v-11.13h5.06c0.94 0 1.777 0.113 2.51 0.34 0.733 0.227 1.353 0.553 1.86 0.98v0c0.567 0.473 0.993 1.07 1.28 1.79 0.287 0.727 0.43 1.56 0.43 2.5v0c0 0.787-0.11 1.497-0.33 2.13-0.22 0.633-0.543 1.177-0.97 1.63v0c-0.507 0.573-1.16 1.01-1.96 1.31-0.807 0.3-1.74 0.45-2.8 0.45z" fill="#374151" fill-rule="nonzero" stroke="none" stroke-width="1" stroke-linecap="butt" stroke-linejoin="miter" stroke-miterlimit="10" stroke-dasharray="" stroke-dashoffset="0" font-family="none" font-weight="none" font-size="none" text-anchor="none" style="mix-blend-mode: normal" data-fill-palette-color="primary" opacity="1"></path></g></svg></g></svg></g></svg></g></svg></g><g transform="matrix(1,0,0,1,0,0.33141566253101473)"><svg viewBox="0 0 115.62165691441048 132.56626501240694" height="132.56626501240694" width="115.62165691441048"><g><svg xmlns="http://www.w3.org/2000/svg" xmlns:xlink="http://www.w3.org/1999/xlink" version="1.1" x="0" y="0" viewBox="6.391000747680664 0 87.21800231933594 99.99999237060547" enable-background="new 0 0 100 100" xml:space="preserve" height="132.56626501240694" width="115.62165691441048" class="icon-icon-0" data-fill-palette-color="accent" id="icon-0"><path fill="#ea1e12" d="M77.806 12.728C67.152 12.728 56.381 8.48 50 0c-6.38 8.479-17.154 12.727-27.807 12.727-5.508 0-10.983-1.135-15.802-3.409 0.54 14.316 1.604 28.825 3.999 42.962 1.222 7.749 2.422 16.888 6.666 23.668 3.729 6.528 9.515 11.869 15.722 16.006 4.715 3.137 9.846 5.717 15.187 7.612 0.853 0.303 1.502 0.434 2.1 0.434 1.036 0 1.917-0.394 3.434-0.974 12.28-4.715 25.46-13.388 30.882-25.855 4.878-11.093 5.954-24.273 7.206-36.19 0.968-9.189 1.671-18.426 2.022-27.663C88.79 11.592 83.312 12.728 77.806 12.728zM81.641 35.937l-0.267 2.568c-0.396 3.824-0.797 7.694-1.326 11.496H50v39.658c-0.001 0-0.002 0.001-0.003 0.001-4.081-1.561-8.003-3.585-11.673-6.026-5.664-3.775-10.016-8.147-12.584-12.645l-0.1-0.175-0.107-0.171c-2.877-4.597-4.016-11.91-5.021-18.363l-0.244-1.557-0.009-0.056-0.01-0.056c-0.034-0.201-0.065-0.408-0.099-0.609H50V13.899l0 0c7.62 5.639 17.418 8.829 27.806 8.829 1.693 0 3.378-0.086 5.046-0.257C82.525 26.877 82.121 31.375 81.641 35.937z" data-fill-palette-color="accent"></path></svg></g></svg></g></svg></g><defs></defs></svg><rect width="395.52" height="96.58324873402938" fill="none" stroke="none" visibility="hidden"></rect></g></svg></g></svg>